[h264 @ 0x55d5f1861240] Reinit context to 1280x720, pix_fmt: yuv420p
Input #0, mov,mp4,m4a,3gp,3g2,mj2, from '/var/www/html/project/media/video/original/video5868237391600294145.mp4':
  Metadata:
    major_brand     : isom
    minor_version   : 512
    compatible_brands: isomiso2avc1mp41
    creation_time   : 2025-02-14T06:31:15.000000Z
  Duration: 00:00:25.36, start: 0.000000, bitrate: 2888 kb/s
    Stream #0:0(eng): Audio: aac (LC) (mp4a / 0x6134706D), 48000 Hz, stereo, fltp, 255 kb/s (default)
    Metadata:
      creation_time   : 2025-02-14T06:30:21.000000Z
      handler_name    : SoundHandle
    Stream #0:1(eng): Video: h264 (Baseline), 1 reference frame (avc1 / 0x31637661), yuv420p(tv, bt709, left), 1280x720, 2625 kb/s, 29.97 fps, 30 tbr, 90k tbn, 180k tbc (default)
    Metadata:
      creation_time   : 2025-02-14T06:30:21.000000Z
      handler_name    : VideoHandle
Input #1, png_pipe, from '/var/www/html/project/static/images/templates/logo.png':
  Duration: N/A, bitrate: N/A
    Stream #1:0: Video: png, 1 reference frame, rgba(pc), 1920x1080 [SAR 2835:2835 DAR 16:9], 25 tbr, 25 tbn, 25 tbc
[h264 @ 0x55d5f18a6e00] Reinit context to 1280x720, pix_fmt: yuv420p
Input #2, mov,mp4,m4a,3gp,3g2,mj2, from '/var/www/html/project/static/images/templates/Codino.mp4':
  Metadata:
    major_brand     : mp42
    minor_version   : 1
    compatible_brands: isommp41mp42
    creation_time   : 2021-07-11T07:02:58.000000Z
  Duration: 00:00:02.00, start: 0.000000, bitrate: 1007 kb/s
    Stream #2:0(ita): Audio: aac (LC) (mp4a / 0x6134706D), 44100 Hz, stereo, fltp, 102 kb/s (default)
    Metadata:
      creation_time   : 2021-07-11T07:02:58.000000Z
      handler_name    : Core Media Audio
    Stream #2:1(und): Video: h264 (High), 1 reference frame (avc1 / 0x31637661), yuv420p(tv, bt709, progressive, left), 1280x720 [SAR 1:1 DAR 16:9], 813 kb/s, 25 fps, 25 tbr, 25k tbn, 50k tbc (default)
    Metadata:
      creation_time   : 2021-07-11T07:02:58.000000Z
      handler_name    : Core Media Video
[Parsed_scale_0 @ 0x55d5f18aa380] w:1280 h:720 flags:'bilinear' interl:0
[Parsed_scale_2 @ 0x55d5f18fc580] w:1280 h:720 flags:'bilinear' interl:0
[Parsed_scale_4 @ 0x55d5f18cbd40] w:1280 h:720 flags:'bilinear' interl:0
Stream mapping:
  Stream #0:0 (aac) -> concat:in0:a0
  Stream #0:1 (h264) -> scale
  Stream #1:0 (png) -> scale
  Stream #2:0 (aac) -> concat:in1:a0
  Stream #2:1 (h264) -> scale
  concat:out:v0 -> Stream #0:0 (libx264)
  concat:out:a0 -> Stream #0:1 (aac)
Press [q] to stop, [?] for help
[h264 @ 0x55d5f18d4b40] Reinit context to 1280x720, pix_fmt: yuv420p
[h264 @ 0x55d5f1cfe5c0] Reinit context to 1280x720, pix_fmt: yuv420p
[Parsed_scale_0 @ 0x55d5f2b441c0] w:1280 h:720 flags:'bilinear' interl:0
[Parsed_scale_2 @ 0x55d5f2b4c400] w:1280 h:720 flags:'bilinear' interl:0
[Parsed_scale_4 @ 0x55d5f2b4e040] w:1280 h:720 flags:'bilinear' interl:0
[graph 0 input from stream 0:1 @ 0x55d5f2b527c0] w:1280 h:720 pixfmt:yuv420p tb:1/90000 fr:30/1 sar:0/1 sws_param:flags=2
[graph 0 input from stream 1:0 @ 0x55d5f2b53800] w:1920 h:1080 pixfmt:rgba tb:1/25 fr:25/1 sar:2835/2835 sws_param:flags=2
[graph 0 input from stream 2:1 @ 0x55d5f2b54880] w:1280 h:720 pixfmt:yuv420p tb:1/25000 fr:25/1 sar:1/1 sws_param:flags=2
[graph_0_in_0_0 @ 0x55d5f2b55840] tb:1/48000 samplefmt:fltp samplerate:48000 chlayout:0x3
[graph_0_in_2_0 @ 0x55d5f2b56980] tb:1/44100 samplefmt:fltp samplerate:44100 chlayout:0x3
[Parsed_concat_7 @ 0x55d5f2b50800] auto-inserting filter 'auto_resampler_0' between the filter 'graph_0_in_2_0' and the filter 'Parsed_concat_7'
[Parsed_scale_0 @ 0x55d5f2b441c0] w:1280 h:720 fmt:yuv420p sar:0/1 -> w:1280 h:720 fmt:yuv420p sar:0/1 flags:0x2
[Parsed_setsar_1 @ 0x55d5f2b4c700] w:1280 h:720 sar:0/1 dar:16/9 -> sar:1/1 dar:16/9
[Parsed_scale_2 @ 0x55d5f2b4c400] w:1920 h:1080 fmt:rgba sar:2835/2835 -> w:1280 h:720 fmt:yuva420p sar:1/1 flags:0x2
[Parsed_setsar_3 @ 0x55d5f2b4d2c0] w:1280 h:720 sar:1/1 dar:16/9 -> sar:1/1 dar:16/9
[Parsed_overlay_6 @ 0x55d5f2b4f6c0] main w:1280 h:720 fmt:yuv420p overlay w:1280 h:720 fmt:yuva420p
[Parsed_overlay_6 @ 0x55d5f2b4f6c0] [framesync @ 0x55d5f2b4f828] Selected 1/90000 time base
[Parsed_overlay_6 @ 0x55d5f2b4f6c0] [framesync @ 0x55d5f2b4f828] Sync level 2
[Parsed_scale_4 @ 0x55d5f2b4e040] w:1280 h:720 fmt:yuv420p sar:1/1 -> w:1280 h:720 fmt:yuv420p sar:1/1 flags:0x2
[Parsed_setsar_5 @ 0x55d5f2b4eb40] w:1280 h:720 sar:1/1 dar:16/9 -> sar:1/1 dar:16/9
[auto_resampler_0 @ 0x55d5f2b5df80] ch:2 chl:stereo fmt:fltp r:44100Hz -> ch:2 chl:stereo fmt:fltp r:48000Hz
[libx264 @ 0x55d5f18fb3c0] using SAR=1/1
[libx264 @ 0x55d5f18fb3c0] using cpu capabilities: MMX2 SSE2Fast SSSE3 SSE4.2 AVX FMA3 BMI2 AVX2
[libx264 @ 0x55d5f18fb3c0] profile High, level 3.1
[libx264 @ 0x55d5f18fb3c0] 264 - core 155 r2917 0a84d98 - H.264/MPEG-4 AVC codec - Copyleft 2003-2018 - http://www.videolan.org/x264.html - options: cabac=1 ref=1 deblock=1:0:0 analyse=0x3:0x113 me=hex subme=2 psy=1 psy_rd=1.00:0.00 mixed_ref=0 me_range=16 chroma_me=1 trellis=0 8x8dct=1 cqm=0 deadzone=21,11 fast_pskip=1 chroma_qp_offset=0 threads=22 lookahead_threads=5 sliced_threads=0 nr=0 decimate=1 interlaced=0 bluray_compat=0 constrained_intra=0 bframes=3 b_pyramid=2 b_adapt=1 b_bias=0 direct=1 weightb=1 open_gop=0 weightp=1 keyint=250 keyint_min=25 scenecut=40 intra_refresh=0 rc_lookahead=10 rc=crf mbtree=1 crf=18.0 qcomp=0.60 qpmin=0 qpmax=69 qpstep=4 ip_ratio=1.40 aq=1:1.00
Output #0, mp4, to '/var/www/html/project/media/video/watermarks/video5868237391600294145.mp4':
  Metadata:
    major_brand     : isom
    minor_version   : 512
    compatible_brands: isomiso2avc1mp41
    encoder         : Lavf58.29.100
    Stream #0:0: Video: h264 (libx264), 1 reference frame (avc1 / 0x31637661), yuv420p(progressive), 1280x720 [SAR 1:1 DAR 16:9], q=-1--1, 30 fps, 15360 tbn, 30 tbc (default)
    Metadata:
      encoder         : Lavc58.54.100 libx264
    Side data:
      cpb: bitrate max/min/avg: 0/0/0 buffer size: 0 vbv_delay: -1
    Stream #0:1: Audio: aac (LC) (mp4a / 0x6134706D), 48000 Hz, stereo, fltp, delay 1024, 128 kb/s (default)
    Metadata:
      encoder         : Lavc58.54.100 aac
[Parsed_concat_7 @ 0x55d5f2b50800] EOF on in0:a0, 1 streams left in segment.
[Parsed_overlay_6 @ 0x55d5f2b4f6c0] [framesync @ 0x55d5f2b4f828] Sync level 0
[Parsed_concat_7 @ 0x55d5f2b50800] EOF on in0:v0, 0 streams left in segment.
[Parsed_concat_7 @ 0x55d5f2b50800] Segment finished at pts=25356464
[Parsed_concat_7 @ 0x55d5f2b50800] EOF on in1:v0, 1 streams left in segment.
[Parsed_concat_7 @ 0x55d5f2b50800] EOF on in1:a0, 0 streams left in segment.
[Parsed_concat_7 @ 0x55d5f2b50800] Segment finished at pts=27375151
No more output streams to write to, finishing.
frame=  810 fps= 93 q=-1.0 Lsize=   10609kB time=00:00:27.38 bitrate=3174.0kbits/s speed=3.14x    
[AVIOContext @ 0x55d5f185c440] Statistics: 0 seeks, 18 writeouts
video:10145kB audio:434kB subtitle:0kB other streams:0kB global headers:0kB muxing overhead: 0.284526%
Input file #0 (/var/www/html/project/media/video/original/video5868237391600294145.mp4):
  Input stream #0:0 (audio): 1187 packets read (810378 bytes); 1187 frames decoded (1215488 samples); 
  Input stream #0:1 (video): 760 packets read (8320470 bytes); 760 frames decoded; 
  Total: 1947 packets (9130848 bytes) demuxed
Input file #1 (/var/www/html/project/static/images/templates/logo.png):
  Input stream #1:0 (video): 1 packets read (111578 bytes); 1 frames decoded; 
  Total: 1 packets (111578 bytes) demuxed
Input file #2 (/var/www/html/project/static/images/templates/Codino.mp4):
  Input stream #2:0 (audio): 89 packets read (26579 bytes); 87 frames decoded (89024 samples); 
  Input stream #2:1 (video): 50 packets read (203365 bytes); 50 frames decoded; 
  Total: 139 packets (229944 bytes) demuxed
Output file #0 (/var/www/html/project/media/video/watermarks/video5868237391600294145.mp4):
  Output stream #0:0 (video): 810 frames encoded; 810 packets muxed (10388490 bytes); 
  Output stream #0:1 (audio): 1283 frames encoded (1313521 samples); 1284 packets muxed (443906 bytes); 
  Total: 2094 packets (10832396 bytes) muxed
[AVIOContext @ 0x55d5f18b3e40] Statistics: 2 seeks, 45 writeouts
[libx264 @ 0x55d5f18fb3c0] frame I:4     Avg QP:14.25  size: 65970
[libx264 @ 0x55d5f18fb3c0] frame P:297   Avg QP:17.14  size: 21678
[libx264 @ 0x55d5f18fb3c0] frame B:509   Avg QP:20.45  size:  7241
[libx264 @ 0x55d5f18fb3c0] consecutive B-frames: 14.6%  4.2%  2.2% 79.0%
[libx264 @ 0x55d5f18fb3c0] mb I  I16..4: 28.7% 23.5% 47.8%
[libx264 @ 0x55d5f18fb3c0] mb P  I16..4:  7.3%  7.5%  2.4%  P16..4: 32.9% 11.6%  8.3%  0.0%  0.0%    skip:30.0%
[libx264 @ 0x55d5f18fb3c0] mb B  I16..4:  0.8%  1.1%  0.1%  B16..8: 24.3%  6.3%  0.7%  direct:21.3%  skip:45.4%  L0:42.5% L1:42.7% BI:14.7%
[libx264 @ 0x55d5f18fb3c0] 8x8 transform intra:44.0% inter:22.5%
[libx264 @ 0x55d5f18fb3c0] coded y,uvDC,uvAC intra: 48.0% 76.5% 24.5% inter: 13.6% 39.0% 1.6%
[libx264 @ 0x55d5f18fb3c0] i16 v,h,dc,p: 60% 17% 13% 10%
[libx264 @ 0x55d5f18fb3c0] i8 v,h,dc,ddl,ddr,vr,hd,vl,hu: 24% 32% 19%  3%  5%  4%  6%  4%  4%
[libx264 @ 0x55d5f18fb3c0] i4 v,h,dc,ddl,ddr,vr,hd,vl,hu: 27% 27% 13%  4%  6%  6%  6%  5%  5%
[libx264 @ 0x55d5f18fb3c0] i8c dc,h,v,p: 47% 25% 18% 11%
[libx264 @ 0x55d5f18fb3c0] Weighted P-Frames: Y:6.1% UV:2.7%
[libx264 @ 0x55d5f18fb3c0] kb/s:3040.33
[aac @ 0x55d5f1a0fa40] Qavg: 2143.612
[AVIOContext @ 0x55d5f18653c0] Statistics: 9193810 bytes read, 2 seeks
[AVIOContext @ 0x55d5f18ade00] Statistics: 111578 bytes read, 0 seeks
[AVIOContext @ 0x55d5f18a9dc0] Statistics: 1530915 bytes read, 42 seeks
